<?xml version="1.0" standalone="no"?>
<svg viewBox="0 0 1000 1000" xmlns="http://www.w3.org/2000/svg">
  <path fill="#0F62FE" d="M35.8,-57.2C49.7,-54,66.5,-51.1,71.9,-41.6C77.4,-32.1,71.4,-16,68.4,-1.7C65.4,12.6,65.4,25.1,60,34.7C54.6,44.3,43.9,51,33,60.6C22.2,70.3,11.1,83.1,-2.7,87.8C-16.5,92.5,-33.1,89.2,-45.6,80.5C-58.2,71.8,-66.8,57.6,-70.1,43.3C-73.4,29,-71.5,14.5,-71.2,0.2C-70.8,-14.1,-72.1,-28.2,-67.3,-40.1C-62.6,-52,-51.9,-61.7,-39.7,-65.8C-27.4,-69.9,-13.7,-68.6,-1.4,-66.2C11,-63.8,21.9,-60.4,35.8,-57.2Z" transform="translate(100 100)" />
</svg>
